<svg width="557" height="564" viewBox="0 0 557 564" fill="none" xmlns="http://www.w3.org/2000/svg">
<g clip-path="url(#clip0_818_2635)">
<circle opacity="0.12" cx="280" cy="291" r="273" fill="#009CDF"/>
<path d="M124.926 94.1885L120.68 116.477L141.851 122.444L139.22 98.6485L124.926 94.1885Z" fill="#A0616A"/>
<path d="M0 555.56C0 556.26 0.56269 556.823 1.26339 556.823H555.737C556.437 556.823 557 556.26 557 555.56C557 554.859 556.437 554.297 555.737 554.297H1.26339C0.56269 554.297 0 554.859 0 555.56Z" fill="#3F3D56"/>
<path d="M377.977 252.93H159.635C134.875 252.93 114.803 272.997 114.803 297.751V509.419C114.803 534.173 134.875 554.24 159.635 554.24H377.977C402.737 554.24 422.809 534.173 422.809 509.419V297.751C422.809 272.997 402.737 252.93 377.977 252.93Z" fill="white"/>
<path d="M377.976 555.301H159.634C134.328 555.301 113.74 534.719 113.74 509.419V297.751C113.74 272.452 134.328 251.869 159.634 251.869H377.976C403.282 251.869 423.87 272.452 423.87 297.751V509.419C423.87 534.719 403.282 555.301 377.976 555.301ZM159.634 253.991C135.499 253.991 115.863 273.622 115.863 297.751V509.419C115.863 533.549 135.499 553.179 159.634 553.179H377.976C402.111 553.179 421.747 533.549 421.747 509.419V297.751C421.747 273.622 402.111 253.991 377.976 253.991L159.634 253.991Z" fill="#3F3D56"/>
<path d="M393.792 344.696H306.03C302.308 344.696 299.279 341.668 299.279 337.947C299.279 334.225 302.308 331.198 306.03 331.198H393.792C397.514 331.198 400.543 334.225 400.543 337.947C400.543 341.668 397.514 344.696 393.792 344.696Z" fill="#009CDF"/>
<path d="M311.459 397.771H226.151C224 397.771 222.25 396.022 222.25 393.872C222.25 391.721 224 389.973 226.151 389.973H311.459C313.61 389.973 315.359 391.721 315.359 393.872C315.359 396.022 313.61 397.771 311.459 397.771Z" fill="#009CDF"/>
<path d="M190.884 267.426H142.179C141.997 267.426 141.85 267.573 141.85 267.755V273.424C141.85 273.605 141.997 273.753 142.179 273.753H190.884C191.065 273.753 191.213 273.605 191.213 273.424V267.755C191.213 267.573 191.065 267.426 190.884 267.426Z" fill="#009CDF"/>
<path d="M354.938 273.753C357.734 273.753 360.001 271.487 360.001 268.691C360.001 265.896 357.734 263.63 354.938 263.63C352.142 263.63 349.875 265.896 349.875 268.691C349.875 271.487 352.142 273.753 354.938 273.753Z" fill="#3F3D56"/>
<path d="M368.86 273.753C371.656 273.753 373.923 271.487 373.923 268.691C373.923 265.896 371.656 263.63 368.86 263.63C366.064 263.63 363.797 265.896 363.797 268.691C363.797 271.487 366.064 273.753 368.86 273.753Z" fill="#3F3D56"/>
<path d="M382.784 273.753C385.58 273.753 387.847 271.487 387.847 268.691C387.847 265.896 385.58 263.63 382.784 263.63C379.987 263.63 377.721 265.896 377.721 268.691C377.721 271.487 379.987 273.753 382.784 273.753Z" fill="#3F3D56"/>
<path d="M159.104 418.645C159.104 419.346 159.666 419.908 160.367 419.908H377.245C377.946 419.908 378.508 419.346 378.508 418.645C378.508 417.945 377.946 417.382 377.245 417.382H160.367C159.666 417.382 159.104 417.945 159.104 418.645Z" fill="#3F3D56"/>
<path d="M225.246 107.109C229.863 103.295 235.574 102.585 238.001 105.523C240.429 108.461 238.654 113.933 234.034 117.748C232.21 119.297 230.041 120.387 227.709 120.927L207.942 136.84L200.67 127.407L220.929 112.721C221.899 110.532 223.379 108.608 225.246 107.109Z" fill="#A0616A"/>
<path d="M110.995 143.014C110.985 142.311 110.992 136.172 115.537 132.292C120.76 127.834 128.128 129.638 130.713 130.271C136.683 131.733 137.172 134.293 142.779 136.924C153.268 141.846 140.126 139.327 146.367 137.749C148.527 137.202 179.609 135.047 187.345 130.287C202.392 121.028 212.645 115.413 212.645 115.413L219.347 128.814C219.347 128.814 209.655 142.287 196.016 152.267C182.024 162.505 175.028 167.624 164.397 169.602C163.481 169.772 140.964 173.616 122.829 160.07C118.692 156.98 111.113 151.319 110.995 143.014Z" fill="#E6E6E6"/>
<path d="M131.785 108.932C144.68 108.932 155.133 98.4817 155.133 85.5903C155.133 72.6988 144.68 62.2483 131.785 62.2483C118.891 62.2483 108.438 72.6988 108.438 85.5903C108.438 98.4817 118.891 108.932 131.785 108.932Z" fill="#A0616A"/>
<path d="M314.637 242.411L290.592 217.804L278.18 230.748L296.094 254.342L313.863 256.374L314.637 242.411Z" fill="#A0616A"/>
<path d="M177.338 196.268C178.745 196.384 183.214 197.28 187.486 194.93C190.401 193.326 191.896 190.942 192.401 190.184C198.666 180.777 222.713 166.108 244.294 165.205C249.181 165 252.398 165.567 255.322 167.09C259.468 169.251 261.123 172.346 266.384 179.596C269.262 183.562 272.447 187.298 275.359 191.239C292.411 214.309 298.875 216.12 298.215 223.516C297.482 231.722 288.629 239.507 282.746 238.608C280.336 238.24 279.403 236.565 276.184 233.174C266.745 223.232 262.84 225.069 256.119 217.453C248.273 208.562 249.301 201.19 245.207 200.905C241.411 200.641 239.798 206.93 231.694 215.285C227.985 219.108 225.345 220.862 217.3 226.441C185.971 248.17 185.471 249.697 179.148 251.43C176.382 252.188 156.748 257.57 149.754 249.006C138.81 235.605 164.666 195.215 177.338 196.268Z" fill="#2F2E41"/>
<path d="M307.285 247.971C309.053 247.178 311.121 246.249 311.786 244.115C312.237 242.67 311.977 240.889 311.047 239.659C309.973 238.239 308.384 238.052 308.448 237.8C308.546 237.418 312.304 237.567 316.429 239.025C317.207 239.3 320.734 240.588 325.219 244.089C328.813 246.895 328.33 247.457 330.583 249.074C337.501 254.039 343.99 250.126 347.733 254.782C349.178 256.579 349.794 259.13 349.186 261.193C347.965 265.336 342.027 266.762 338.782 267.498C330.967 269.27 325.052 267.823 318.875 266.783C297.869 263.244 286.067 266.467 284.487 261.602C284.188 260.681 284.674 260.759 286.294 254.002C287.892 247.333 287.84 245.501 289.201 244.967C291.251 244.163 292.627 247.82 297.789 249.071C302.364 250.181 306.139 248.486 307.285 247.971Z" fill="#2F2E41"/>
<path d="M271.887 322.909L265.812 289.049L248.271 292.792L249.843 322.371L263.405 334.028L271.887 322.909Z" fill="#A0616A"/>
<path d="M184.198 207.649C185.296 208.535 188.491 211.785 193.346 212.239C196.659 212.549 199.235 211.415 200.079 211.071C210.547 206.804 238.684 208.166 257.048 219.535C261.207 222.109 263.551 224.384 265.114 227.286C267.331 231.401 266.962 234.891 267.244 243.844C267.397 248.741 267.934 253.621 268.13 258.516C269.282 287.178 273.614 292.306 268.913 298.055C263.697 304.433 251.999 305.906 247.636 301.859C245.849 300.202 246.017 298.292 245.258 293.679C243.032 280.153 238.769 279.481 237.486 269.407C235.988 257.645 240.978 252.121 237.751 249.588C234.759 247.238 229.891 251.536 218.493 253.9C213.277 254.981 210.107 254.95 200.316 255.05C162.188 255.442 160.917 256.425 154.712 254.309C151.997 253.384 132.729 246.814 131.752 235.802C130.223 218.568 174.303 199.664 184.198 207.649Z" fill="#2F2E41"/>
<path d="M262.681 323.383C264.591 323.719 266.823 324.112 268.572 322.719C269.756 321.776 270.542 320.157 270.463 318.616C270.373 316.839 269.163 315.792 269.357 315.62C269.653 315.358 272.678 317.592 275.273 321.114C275.762 321.778 277.956 324.824 279.702 330.239C281.1 334.578 280.384 334.771 281.34 337.375C284.276 345.367 291.842 345.772 292.325 351.726C292.511 354.024 291.588 356.481 289.926 357.846C286.589 360.589 280.875 358.435 277.777 357.222C270.314 354.302 266.232 349.784 261.706 345.455C246.312 330.734 234.736 326.775 236.162 321.863C236.432 320.933 236.789 321.271 241.925 316.589C246.994 311.967 247.979 310.422 249.406 310.745C251.553 311.23 250.638 315.029 254.206 318.962C257.369 322.448 261.444 323.165 262.681 323.383Z" fill="#2F2E41"/>
<path d="M134.97 90.0527C135.879 86.8021 134.737 85.6175 135.901 84.1584C135.901 84.1583 136.369 83.5712 140.555 81.9868C139.32 74.8222 140.245 73.6107 140.245 73.6107C141.311 72.2145 143.446 71.8769 144.899 72.0596C147.974 72.4459 148.518 75.2242 150.485 75.1618C153.202 75.0757 156.461 69.6377 155.45 64.9244C154.624 61.0797 151.066 58.2244 150.174 58.7199C149.29 59.2111 146.107 57.045 144.899 57.479C144.075 57.7754 140.194 57.381 139.314 57.7892C138.353 58.235 135.601 61.0102 135.338 60.6605C133.509 58.2306 133.548 57.3822 132.487 56.8585C130.607 55.9305 128.564 57.6457 125.04 59.3403C117.789 62.827 115.666 60.7471 112.317 63.6835C110.626 65.1668 109.719 68.0016 107.973 73.6107C105.532 81.455 104.312 85.3771 105.491 89.122C106.693 92.9411 108.463 92.1099 111.076 97.4981C113.985 103.496 112.982 106.982 115.731 108.356C117.855 109.418 121.269 108.742 122.557 106.805C124.764 103.488 119.061 99.002 121.006 93.7754C122.2 90.5671 125.884 88.1344 128.143 88.8118C130.697 89.5777 130.885 94.1565 132.487 94.0856C133.859 94.0249 134.811 90.6191 134.97 90.0527Z" fill="#2F2E41"/>
<path d="M117.281 112.389C122.058 107.033 141.519 112.577 143.346 121.075C144.097 124.571 141.324 126.047 142.105 130.072C143.247 135.959 149.716 135.557 154.517 141.55C161.333 150.058 154.311 158.375 161.964 172.573C163.6 175.607 164.978 178.164 167.86 180.639C174.474 186.318 180.628 184.37 183.996 189.635C186.514 193.573 185.479 198.426 185.237 199.562C184.243 204.224 181.55 205.36 179.652 209.179C176.494 215.534 180.069 220.2 180.272 227.793C180.526 237.293 175.477 250.462 165.378 254.783C154.032 259.637 140.348 251.597 133.727 243.614C129.776 238.851 128.629 234.457 126.9 229.034C119.175 204.795 114.81 206.988 108.902 187.774C102.149 165.809 100.821 140.076 108.902 131.933C109.974 130.854 112.921 128.359 114.798 123.867C117.324 117.823 115.142 114.786 117.281 112.389Z" fill="#E6E6E6"/>
<path d="M187.878 237.063C191.582 241.768 192.156 247.493 189.161 249.849C186.165 252.206 180.735 250.301 177.03 245.594C175.524 243.734 174.486 241.54 174.002 239.196L158.559 219.062L166.538 212.976L182.369 232.615C184.534 233.636 186.423 235.162 187.878 237.063Z" fill="#A0616A"/>
<path d="M131.319 132.8C132.006 132.647 138.019 131.4 142.746 135.058C148.176 139.259 147.913 146.839 147.821 149.498C147.608 155.639 145.2 156.641 143.768 162.665C141.089 173.935 146.192 184.409 149.011 190.196C149.986 192.199 153.121 198.328 159.361 204.928C171.498 217.766 182.327 224.521 182.327 224.521L170.694 234.859C170.694 234.859 152.163 229.212 139.607 217.899C126.727 206.294 106.92 165.236 102.814 155.234C102.461 154.373 107.47 168.376 117.033 147.862C119.215 143.183 123.211 134.61 131.319 132.8Z" fill="#E6E6E6"/>
<path d="M290.825 447.558C283.431 448.691 278.022 453.424 278.744 458.128C279.466 462.833 286.045 465.727 293.442 464.592C296.403 464.18 299.222 463.064 301.663 461.339L332.932 456.143L330.845 443.786L299.647 448.199C296.8 447.284 293.775 447.064 290.825 447.558Z" fill="#FFB6B6"/>
<path d="M425.571 409.04L413.446 434.762L352.493 455.276L301.915 457.973L300.648 445.828L355.464 434.37L411.711 407.796L425.571 409.04Z" fill="#E6E6E6"/>
<path d="M313.152 506.707L302.267 534.234L288.18 524.632L296.504 495.824L313.152 506.707Z" fill="#FFB6B6"/>
<path d="M267.69 496.464L238.875 523.991L250.401 536.154L279.856 513.109L267.69 496.464Z" fill="#FFB6B6"/>
<path d="M430.971 406.841L430.651 404.601L423.287 390.197L398.955 396.599L403.437 416.444L430.971 406.841Z" fill="#FFB6B6"/>
<path d="M420.726 502.866L421.474 512.481C421.474 512.481 424.568 552.799 399.595 556C374.622 559.2 363.737 562.401 349.01 537.435L325.958 496.464L312.493 512.481L294.582 498.385C294.582 498.385 307.389 448.452 317.634 446.532C318.914 446.292 320.195 446.172 321.456 446.145C329.937 445.969 337.933 450.116 343.007 456.913L372.061 495.824L382.627 491.023L420.726 502.866Z" fill="#2F2E41"/>
<path d="M282.417 532.954L288.179 522.071L304.828 533.594C304.828 533.594 308.67 547.677 302.907 549.598C297.144 551.518 281.136 548.958 281.136 548.958C281.136 548.958 251.681 555.359 251.041 549.598C250.4 543.836 264.488 542.556 264.488 542.556L282.417 532.954Z" fill="#2F2E41"/>
<path d="M345.168 525.271L300.666 497.238L277.934 517.59L262.566 499.665C262.566 499.665 290.741 458.054 299.065 456.134C307.389 454.213 320.836 452.933 320.836 452.933L361.817 490.703L345.168 525.271Z" fill="#2F2E41"/>
<path d="M238.234 521.431L252.962 537.435L251.02 539.096C251.02 539.096 247.199 555.732 238.234 550.104C229.27 544.477 228.63 543.196 228.63 543.196C228.63 543.196 203.017 548.958 200.455 538.715C197.894 528.472 204.938 530.393 204.938 530.393L211.333 534.234L238.234 521.431Z" fill="#2F2E41"/>
<path d="M406.639 403.641C417.955 403.641 427.129 394.469 427.129 383.155C427.129 371.842 417.955 362.67 406.639 362.67C395.322 362.67 386.148 371.842 386.148 383.155C386.148 394.469 395.322 403.641 406.639 403.641Z" fill="#FFB6B6"/>
<path d="M401.836 412.283L431.291 403.321C431.291 403.321 442.817 430.207 440.896 442.37C438.975 454.534 421.474 512.481 421.474 512.481L382.627 491.023C382.627 491.023 381.986 478.22 380.065 472.458C378.145 466.697 372.061 449.092 385.508 434.368C398.955 419.645 401.836 412.283 401.836 412.283Z" fill="#E6E6E6"/>
<path d="M337.008 546.705C332.214 552.447 331.292 559.573 334.947 562.623C338.603 565.672 345.45 563.489 350.245 557.745C352.192 555.477 353.567 552.775 354.255 549.867L374.258 525.284L364.514 517.4L344.046 541.35C341.306 542.548 338.892 544.384 337.008 546.705Z" fill="#FFB6B6"/>
<path d="M424.428 425.198L431.391 452.768L397.316 507.299L362.53 542.251L351.256 532.899L386.337 489.26L412.929 433.032L424.428 425.198Z" fill="#E6E6E6"/>
<path d="M387.75 379.635C393.005 379.622 393.304 379.657 394.154 379.635C400.671 379.463 402.376 376.899 405.679 377.074C411.576 377.386 403.793 406.941 400.557 420.605C397.383 434.006 408.11 446.013 408.881 446.852C419.77 458.691 438.896 460.856 442.178 455.814C444.834 451.733 435.42 445.528 437.696 436.609C439.92 427.89 450.192 428.819 453.063 420.605C456.07 412.003 445.965 407.665 439.617 386.676C435.97 374.623 436.615 372.377 433.213 364.911C424.119 344.955 379.545 353.452 384.549 371.953C385.517 375.531 382.941 379.646 387.75 379.635Z" fill="#2F2E41"/>
<path d="M453.18 136.449H237.83C231.74 136.449 226.785 131.495 226.785 125.407V11.0418C226.785 4.95369 231.74 0 237.83 0H453.18C459.27 0 464.224 4.95368 464.224 11.0418V125.407C464.224 131.495 459.27 136.449 453.18 136.449Z" fill="white"/>
<path d="M453.18 136.449H237.83C231.74 136.449 226.785 131.495 226.785 125.407V11.0418C226.785 4.95369 231.74 0 237.83 0H453.18C459.27 0 464.224 4.95368 464.224 11.0418V125.407C464.224 131.495 459.27 136.449 453.18 136.449ZM237.83 1.8439C232.757 1.8439 228.63 5.97017 228.63 11.0418V125.407C228.63 130.478 232.757 134.605 237.83 134.605H453.18C458.253 134.605 462.38 130.478 462.38 125.407V11.0418C462.38 5.97017 458.253 1.8439 453.18 1.8439H237.83Z" fill="#3F3D56"/>
<path d="M436.56 13.8293C438.087 13.8293 439.326 12.591 439.326 11.0635C439.326 9.53592 438.087 8.29761 436.56 8.29761C435.032 8.29761 433.793 9.53592 433.793 11.0635C433.793 12.591 435.032 13.8293 436.56 13.8293Z" fill="#3F3D56"/>
<path d="M443.936 13.8293C445.464 13.8293 446.703 12.591 446.703 11.0635C446.703 9.53592 445.464 8.29761 443.936 8.29761C442.409 8.29761 441.17 9.53592 441.17 11.0635C441.17 12.591 442.409 13.8293 443.936 13.8293Z" fill="#3F3D56"/>
<path d="M451.313 13.8293C452.841 13.8293 454.08 12.591 454.08 11.0635C454.08 9.53592 452.841 8.29761 451.313 8.29761C449.785 8.29761 448.547 9.53592 448.547 11.0635C448.547 12.591 449.785 13.8293 451.313 13.8293Z" fill="#3F3D56"/>
<path d="M242.461 55.7778C241.699 55.7778 241.078 56.3982 241.078 57.1608C241.078 57.5326 241.222 57.8765 241.482 58.1304C241.745 58.3996 242.09 58.5437 242.461 58.5437H449.469C450.231 58.5437 450.852 57.9233 450.852 57.1608C450.852 56.7889 450.708 56.445 450.448 56.1911C450.185 55.9219 449.84 55.7778 449.469 55.7778H242.461Z" fill="#E6E6E6"/>
<path d="M423.648 55.3169V59.0047H242.462C241.954 59.0047 241.493 58.8018 241.161 58.4607C240.82 58.1288 240.617 57.6679 240.617 57.1608C240.617 56.1466 241.447 55.3169 242.462 55.3169H423.648Z" fill="#009CDF"/>
<path d="M447.164 48.4025H428.72C426.686 48.4025 425.031 46.7485 425.031 44.7147C425.031 42.6808 426.686 41.0269 428.72 41.0269H447.164C449.198 41.0269 450.852 42.6808 450.852 44.7147C450.852 46.7485 449.197 48.4025 447.164 48.4025Z" fill="#E6E6E6"/>
<path d="M326.358 29.0414H243.845C241.811 29.0414 240.156 27.3874 240.156 25.3536C240.156 23.3197 241.811 21.6658 243.845 21.6658H326.358C328.392 21.6658 330.047 23.3197 330.047 25.3536C330.047 27.3874 328.392 29.0414 326.358 29.0414Z" fill="#E6E6E6"/>
<path d="M242.461 97.2656C241.699 97.2656 241.078 97.886 241.078 98.6485C241.078 99.0204 241.222 99.3643 241.482 99.6182C241.745 99.8874 242.09 100.031 242.461 100.031H449.469C450.231 100.031 450.852 99.4111 450.852 98.6485C450.852 98.2767 450.708 97.9328 450.448 97.6789C450.185 97.4097 449.84 97.2656 449.469 97.2656H242.461Z" fill="#E6E6E6"/>
<path d="M352.64 96.8047V100.492H242.462C241.954 100.492 241.493 100.29 241.161 99.9485C240.82 99.6166 240.617 99.1556 240.617 98.6486C240.617 97.6344 241.447 96.8047 242.462 96.8047H352.64Z" fill="#009CDF"/>
<path d="M447.164 89.89H428.72C426.686 89.89 425.031 88.2361 425.031 86.2022C425.031 84.1683 426.686 82.5144 428.72 82.5144H447.164C449.198 82.5144 450.852 84.1683 450.852 86.2022C450.852 88.2361 449.197 89.89 447.164 89.89Z" fill="#E6E6E6"/>
</g>
<defs>
<clipPath id="clip0_818_2635">
<rect width="557" height="564" fill="white"/>
</clipPath>
</defs>
</svg>
