<svg xmlns="http://www.w3.org/2000/svg" width="248" height="65" fill="none"><mask id="a" width="248" height="65" x="0" y="0" maskUnits="userSpaceOnUse" style="mask-type:luminance"><path fill="#fff" d="M247.12 0H0v65h247.12V0Z"/></mask><g mask="url(#a)"><path fill="#222221" d="M244.53 13.33c-1.75-3.78-4.1-6.71-7.04-8.82-3.13-2.23-7.44-3.63-12.94-4.2C222.45.1 217.83 0 210.7 0c-1.04 0-1.94.01-2.73.02-1.89.03-3.49 1.19-4.61 2.83-.69 1.02-1.02 2.25-1.02 3.48v37.1c0 1.73.64 3.44 1.94 4.59.79.7 1.72 1.15 2.76 1.18.45.01.92.03 1.42.03 2.27.08 3.98.11 5.12.11 6.04 0 9.73-.03 11.07-.07 6.98-.24 12.37-2.6 16.17-7.11 4.3-5.04 6.4-10.98 6.3-17.84-.06-3.75-.93-7.42-2.59-10.99Zm-12.74 20.16c-2.62 2.44-6.25 3.66-10.9 3.66-4.31 0-6.47-.45-6.48-1.36l-.2-22.82c-.02-.87 1.82-.89 5.97-.89 4.52 0 8.17 1.18 10.96 3.53 2.76 2.27 4.17 5.19 4.23 8.77.07 3.76-1.13 6.8-3.58 9.11Z"/></g><mask id="b" width="248" height="65" x="0" y="0" maskUnits="userSpaceOnUse" style="mask-type:luminance"><path fill="#fff" d="M247.12 0H0v65h247.12V0Z"/></mask><g mask="url(#b)"><path fill="#222221" d="M0 49.3601s12.34-27.84 21.3-47.12c2.45-5.26 12.73-1.14 7.97 10.8-5.56 13.95-15.43 36.32-15.43 36.32H0Z"/></g><mask id="c" width="248" height="65" x="0" y="0" maskUnits="userSpaceOnUse" style="mask-type:luminance"><path fill="#fff" d="M247.12 0H0v65h247.12V0Z"/></mask><g mask="url(#c)"><path fill="#222221" d="M36.1801 49.36h13.63l-15.1-34.39-7.13 15.62 8.6 18.77Z"/></g><mask id="d" width="248" height="65" x="0" y="0" maskUnits="userSpaceOnUse" style="mask-type:luminance"><path fill="#fff" d="M247.12 0H0v65h247.12V0Z"/></mask><g mask="url(#d)"><path fill="#222221" d="M145.86 49.3601s12.34-27.84 21.3-47.12c2.45-5.26 12.73-1.14 7.97 10.8-5.56 13.95-15.43 36.32-15.43 36.32h-13.84Z"/></g><mask id="e" width="248" height="65" x="0" y="0" maskUnits="userSpaceOnUse" style="mask-type:luminance"><path fill="#fff" d="M247.12 0H0v65h247.12V0Z"/></mask><g mask="url(#e)"><path fill="#222221" d="M182.03 49.36h13.63l-15.1-34.39-7.13 15.62 8.6 18.77Z"/></g><mask id="f" width="248" height="65" x="0" y="0" maskUnits="userSpaceOnUse" style="mask-type:luminance"><path fill="#fff" d="M247.12 0H0v65h247.12V0Z"/></mask><g mask="url(#f)"><path fill="#222221" d="M105.89 5.09v44.2699h-4.85v-43.2L81.0599 26.13l-19.98-19.97v43.2h-4.85v-44.27c-.34-5.55 5.16-5.92 7.43-3.66 17.39 17.39 9.15 9.13 17.39 17.39 8.24-8.26 0 0 17.39-17.39C100.73-.83 106.22-.46 105.89 5.09Z"/></g><mask id="g" width="248" height="65" x="0" y="0" maskUnits="userSpaceOnUse" style="mask-type:luminance"><path fill="#fff" d="M247.12 0H0v65h247.12V0Z"/></mask><g mask="url(#g)"><path fill="#009CDF" d="M97.4799 15.47v33.82h-4.4V26.52l-12.02 12.06-12.02-12.06v22.77h-4.39V15.47l16.41 16.41 16.42-16.41Z"/></g><mask id="h" width="248" height="65" x="0" y="0" maskUnits="userSpaceOnUse" style="mask-type:luminance"><path fill="#fff" d="M247.12 0H0v65h247.12V0Z"/></mask><g mask="url(#h)"><path fill="#009CDF" d="M3.12 59.8101c-1.23-.47-1.78-.88-1.78-1.72 0-.6.47-1.33 1.68-1.33.81 0 1.4.26 1.69.43l.32-.94c-.39-.22-1.05-.43-1.97-.43-1.73 0-2.87 1.03-2.87 2.42 0 1.25.89 2.01 2.35 2.52 1.2.47 1.67.94 1.67 1.78 0 .89-.68 1.52-1.86 1.52-.79 0-1.54-.26-2.06-.59l-.29.96c.48.31 1.41.57 2.27.57 2.11 0 3.12-1.19 3.12-2.57 0-1.31-.77-2.03-2.27-2.62Z"/></g><mask id="i" width="248" height="65" x="0" y="0" maskUnits="userSpaceOnUse" style="mask-type:luminance"><path fill="#fff" d="M247.12 0H0v65h247.12V0Z"/></mask><g mask="url(#i)"><path fill="#009CDF" d="M22.2302 55.95h-1.47l-1.58 4.3099c-.4 1.12-.71 2.1-.94 3h-.04c-.23-.93-.53-1.9-.9-3l-1.51-4.3099h-1.47l-.62 8.91h1.09l.25-3.82c.08-1.33.14-2.8201.17-3.9401h.03c.25 1.05.61 2.2101 1.03 3.4701l1.44 4.2399h.88l1.56-4.3199c.45-1.23.83-2.3501 1.13-3.3901h.04c-.02 1.12.06 2.6101.13 3.8501l.22 3.91h1.12l-.56-8.91Z"/></g><mask id="j" width="248" height="65" x="0" y="0" maskUnits="userSpaceOnUse" style="mask-type:luminance"><path fill="#fff" d="M247.12 0H0v65h247.12V0Z"/></mask><g mask="url(#j)"><path fill="#009CDF" d="M35.12 55.95h-1.38l-3.03 8.91h1.2l.92-2.8h3.15l.95 2.8h1.24l-3.05-8.91Zm-2.05 5.21.88-2.57c.17-.55.31-1.09.45-1.62h.03c.14.52.26 1.05.46 1.62l.88 2.57h-2.7Z"/></g><mask id="k" width="248" height="65" x="0" y="0" maskUnits="userSpaceOnUse" style="mask-type:luminance"><path fill="#fff" d="M247.12 0H0v65h247.12V0Z"/></mask><g mask="url(#k)"><path fill="#009CDF" d="M51.5599 62.4099c-.21-.92-.63-1.55-1.31-1.79v-.04c.94-.31 1.68-1.1 1.68-2.27 0-.69-.26-1.29-.7-1.69-.56-.5-1.35-.72-2.58-.72-.8 0-1.63.06-2.21.18v8.79h1.16v-3.85h1.08c1.05.03 1.52.49 1.78 1.72.25 1.11.44 1.88.59 2.12h1.2c-.19-.34-.4-1.2-.69-2.45Zm-2.79-2.28h-1.17v-3.25c.18-.05.57-.1 1.13-.1 1.22.01 2.05.51 2.05 1.67 0 1-.78 1.68-2.01 1.68Z"/></g><mask id="l" width="248" height="65" x="0" y="0" maskUnits="userSpaceOnUse" style="mask-type:luminance"><path fill="#fff" d="M247.12 0H0v65h247.12V0Z"/></mask><g mask="url(#l)"><path fill="#009CDF" d="M59.6201 55.95v.98h2.71v7.93h1.17v-7.93h2.72v-.98h-6.6Z"/></g><mask id="m" width="248" height="65" x="0" y="0" maskUnits="userSpaceOnUse" style="mask-type:luminance"><path fill="#fff" d="M247.12 0H0v65h247.12V0Z"/></mask><g mask="url(#m)"><path fill="#009CDF" d="M75.3202 63.9v-3.2101h3.47V59.74h-3.47v-2.8201h3.67V55.95h-4.81v8.91h5v-.96h-3.86Z"/></g><mask id="n" width="248" height="65" x="0" y="0" maskUnits="userSpaceOnUse" style="mask-type:luminance"><path fill="#fff" d="M247.12 0H0v65h247.12V0Z"/></mask><g mask="url(#n)"><path fill="#009CDF" d="M91.7601 64.0301c-2.18 0-3.43-1.39-3.43-3.58 0-2.35 1.39-3.67 3.48-3.67.73 0 1.36.15 1.79.37l.28-.94c-.31-.16-1-.4-2.12-.4-2.77 0-4.66 1.9-4.66 4.68 0 2.92 1.89 4.5 4.4 4.5 1.09 0 1.93-.21 2.35-.42l-.24-.91c-.44.22-1.16.37-1.85.37Z"/></g><mask id="o" width="248" height="65" x="0" y="0" maskUnits="userSpaceOnUse" style="mask-type:luminance"><path fill="#fff" d="M247.12 0H0v65h247.12V0Z"/></mask><g mask="url(#o)"><path fill="#009CDF" d="M107.74 55.95v3.73h-4.31v-3.73h-1.15v8.91h1.15v-4.1701h4.31V64.86h1.16v-8.91h-1.16Z"/></g><mask id="p" width="248" height="65" x="0" y="0" maskUnits="userSpaceOnUse" style="mask-type:luminance"><path fill="#fff" d="M247.12 0H0v65h247.12V0Z"/></mask><g mask="url(#p)"><path fill="#009CDF" d="M126.04 59.8101c-1.22-.47-1.77-.88-1.77-1.72 0-.6.47-1.33 1.68-1.33.81 0 1.4.26 1.69.43l.31-.94c-.4-.22-1.06-.43-1.97-.43-1.73 0-2.88 1.03-2.88 2.42 0 1.25.9 2.01 2.36 2.52 1.2.47 1.67.94 1.67 1.78 0 .89-.68 1.52-1.86 1.52-.79 0-1.54-.26-2.06-.59l-.29.97c.47.31 1.41.57 2.27.57 2.11 0 3.12-1.19 3.12-2.57.01-1.32-.75-2.04-2.27-2.63Z"/></g><mask id="q" width="248" height="65" x="0" y="0" maskUnits="userSpaceOnUse" style="mask-type:luminance"><path fill="#fff" d="M247.12 0H0v65h247.12V0Z"/></mask><g mask="url(#q)"><path fill="#009CDF" d="M140.47 55.8101c-2.38 0-4.14 1.85-4.14 4.68 0 2.69 1.66 4.51 4 4.51 2.28 0 4.14-1.62 4.14-4.68 0-2.64-1.57-4.51-4-4.51Zm-.07 8.26c-1.81 0-2.84-1.71-2.84-3.61 0-1.95.95-3.71 2.86-3.71 1.92 0 2.84 1.84 2.84 3.62 0 2.02-1.03 3.7-2.86 3.7Z"/></g><mask id="r" width="248" height="65" x="0" y="0" maskUnits="userSpaceOnUse" style="mask-type:luminance"><path fill="#fff" d="M247.12 0H0v65h247.12V0Z"/></mask><g mask="url(#r)"><path fill="#009CDF" d="M154.09 63.9v-7.95h-1.15v8.91h4.95v-.96h-3.8Z"/></g><mask id="s" width="248" height="65" x="0" y="0" maskUnits="userSpaceOnUse" style="mask-type:luminance"><path fill="#fff" d="M247.12 0H0v65h247.12V0Z"/></mask><g mask="url(#s)"><path fill="#009CDF" d="M171.05 55.95v5.2799c0 1.96-.84 2.8401-2.17 2.8401-1.19 0-2.07-.8501-2.07-2.8401V55.95h-1.16v5.25c0 2.76 1.38 3.8 3.21 3.8 1.93 0 3.37-1.12 3.37-3.85v-5.2h-1.18Z"/></g><mask id="t" width="248" height="65" x="0" y="0" maskUnits="userSpaceOnUse" style="mask-type:luminance"><path fill="#fff" d="M247.12 0H0v65h247.12V0Z"/></mask><g mask="url(#t)"><path fill="#009CDF" d="M180.17 55.95v.98h2.71v7.93h1.15v-7.93h2.73v-.98h-6.59Z"/></g><mask id="u" width="248" height="65" x="0" y="0" maskUnits="userSpaceOnUse" style="mask-type:luminance"><path fill="#fff" d="M247.12 0H0v65h247.12V0Z"/></mask><g mask="url(#u)"><path fill="#009CDF" d="M195.87 55.95h-1.15v8.91h1.15v-8.91Z"/></g><mask id="v" width="248" height="65" x="0" y="0" maskUnits="userSpaceOnUse" style="mask-type:luminance"><path fill="#fff" d="M247.12 0H0v65h247.12V0Z"/></mask><g mask="url(#v)"><path fill="#009CDF" d="M208.45 55.8101c-2.38 0-4.14 1.85-4.14 4.68 0 2.69 1.65 4.51 3.99 4.51 2.28 0 4.14-1.62 4.14-4.68.01-2.64-1.56-4.51-3.99-4.51Zm-.07 8.26c-1.81 0-2.84-1.71-2.84-3.61 0-1.95.95-3.71 2.86-3.71 1.92 0 2.85 1.84 2.85 3.62-.01 2.02-1.04 3.7-2.87 3.7Z"/></g><mask id="w" width="248" height="65" x="0" y="0" maskUnits="userSpaceOnUse" style="mask-type:luminance"><path fill="#fff" d="M247.12 0H0v65h247.12V0Z"/></mask><g mask="url(#w)"><path fill="#009CDF" d="M226.52 55.9499v3.73c0 1.38.03 2.47.13 3.65l-.03.02c-.42-.92-.93-1.85-1.6-2.9l-2.86-4.51h-1.25v8.91H222v-3.8c0-1.49-.03-2.55-.09-3.67l.04-.02c.44.97 1.04 1.98 1.67 2.98l2.83 4.51h1.16v-8.91h-1.09v.01Z"/></g><mask id="x" width="248" height="65" x="0" y="0" maskUnits="userSpaceOnUse" style="mask-type:luminance"><path fill="#fff" d="M247.12 0H0v65h247.12V0Z"/></mask><g mask="url(#x)"><path fill="#009CDF" d="M239.24 59.8101c-1.22-.47-1.77-.88-1.77-1.72 0-.6.46-1.33 1.67-1.33.81 0 1.4.26 1.69.43l.32-.94c-.4-.22-1.06-.43-1.97-.43-1.73 0-2.88 1.03-2.88 2.42 0 1.25.9 2.01 2.36 2.52 1.2.47 1.68.94 1.68 1.78 0 .89-.69 1.52-1.86 1.52-.8 0-1.56-.26-2.07-.59l-.29.97c.48.31 1.41.57 2.27.57 2.11 0 3.13-1.19 3.13-2.57 0-1.32-.77-2.04-2.28-2.63Z"/></g><mask id="y" width="248" height="65" x="0" y="0" maskUnits="userSpaceOnUse" style="mask-type:luminance"><path fill="#fff" d="M247.12 0H0v65h247.12V0Z"/></mask><g mask="url(#y)"><path fill="#222221" d="M143.62 16.15v13.81c-.03 11.7401-9.31 20.34-20.96 19.22-3.68-.3499-6.89-1.62-9.57-3.76l.62-1.39c2.37 1.94 5.19 3.13 8.45 3.61 9.49 1.42 18.77-5.1899 19.86-15.2.12-1.19.18-2.3999.18-3.6-.03-9.3199-.04-19.48-.04-28.79h1.47v.82c.04 5.09-.01 10.18-.01 15.28Z"/></g><mask id="z" width="248" height="65" x="0" y="0" maskUnits="userSpaceOnUse" style="mask-type:luminance"><path fill="#fff" d="M247.12 0H0v65h247.12V0Z"/></mask><g mask="url(#z)"><path fill="#222221" d="M140.87 28.91c.02 2.83-.38 5.55-1.56 8.16-4.4 9.79-17.24 12.22-25.02 5.64l.64-1.42c3.73 3.31 9.2 4.55 14.21 3 5.85-1.79 10.3-7.82 10.29-13.92V.04h1.26s.13 19.46.18 28.87Z"/></g><mask id="A" width="248" height="65" x="0" y="0" maskUnits="userSpaceOnUse" style="mask-type:luminance"><path fill="#fff" d="M247.12 0H0v65h247.12V0Z"/></mask><g mask="url(#A)"><path fill="#222221" d="M137.98 29.21c.01 3.67-.84 7.05-3.29 9.9-4.89 5.68-14.11 5.84-19.17.87l.64-1.43c1.44 1.5 3.23 2.53 5.3 3.13 7.08 2.05 14.69-3.55 15.01-10.92.22-5.14-.07-9.84-.07-14.99V.04h1.49c.03 9.48.07 19.69.09 29.17Z"/></g><mask id="B" width="248" height="65" x="0" y="0" maskUnits="userSpaceOnUse" style="mask-type:luminance"><path fill="#fff" d="M247.12 0H0v65h247.12V0Z"/></mask><g mask="url(#B)"><path fill="#222221" d="M135.07 24.8601c0 1.7999-.01 3.61-.03 5.42-.08 6.35-5.04 10.8999-11.38 10.3999-2.8-.2299-5.13-1.43-6.86-3.5699l.64-1.4501c0 .01.01.0101.01.02 3.07 3.8401 7.69 4.7401 11.88 2.25 3-1.79 4.29-4.6399 4.3-8 .03-9.08-.1-29.88-.1-29.88h1.51v15.79c.01 3 .03 6.01.03 9.0201Z"/></g></svg>